<svg id="Layer_1" data-name="Layer 1" xmlns="http://www.w3.org/2000/svg" viewBox="0 0 294.45 383.33">
  <defs>
    <style>
      .cls-1 {
        stroke-width: 0px;
      }
    </style>
  </defs>
  <path class="cls-1" d="m45.95,383.33c-.55-.25-1.08-.57-1.65-.74-10.15-3.04-16.29-10.8-16.86-21.37-.07-1.24-.1-2.5-.03-3.74.39-7.02,0-13.27-5.87-18.9-5.39-5.16-7.02-12.82-7.04-20.39-.05-25.83-.06-51.66.01-77.48.03-10.19,1.96-20.07,5.64-29.59.44-1.13.82-2.29,1.48-4.13-4.26,0-8.07.02-11.88,0-7.33-.05-9.71-2.4-9.74-9.59-.02-5.12-.06-10.23.01-15.35.18-12.64,7.96-22.4,19.97-25.14,11.36-2.59,22.74,3.04,28.31,14,.28.55.58,1.1.99,1.89,2.34-1.47,4.58-2.95,6.9-4.32,12.95-7.69,26.97-11.67,42.03-11.94,5.39-.09,8.88,2.9,8.9,7.42.02,4.5-3.37,7.39-8.84,7.54-38.33,1-68.55,31.61-68.76,69.88-.14,25.2-.06,50.41-.02,75.61.02,12.17,8.82,21.37,20.32,21.43,11.58.06,20.43-8.88,20.59-21.16.16-12.48.02-24.95.05-37.43.02-8.54,4.28-11.49,12.38-8.52,16.12,5.91,32.76,8.77,49.92,8.74,11.38-.02,22.76-.01,34.14,0,6.99,0,9.57,2.54,9.59,9.41.02,9.23-.03,18.47.01,27.7.06,11.97,8.72,21.1,20.09,21.27,11.51.17,20.5-8.51,20.72-20.57.26-14.09.13-28.2.05-42.3-.02-3.83,1.34-6.59,4.49-8.86,20.55-14.81,31.23-35.01,31.57-60.23.37-27.32.09-54.65.09-81.98,0-.73-.14-1.45-.27-2.8-3.91,0-7.75.16-11.56-.04-4.77-.25-7.65-3.26-7.6-7.54.05-4.27,3.03-7.2,7.8-7.29,6.75-.13,13.5-.03,20.26-.05,8.14-.03,10.84-1.89,13.74-9.47,1.03-2.68,2.14-5.33,3-8.05,1.6-5.08-.05-10.03-4.68-12.63-11.98-6.71-24.06-13.24-36.2-19.66-1.9-1-4.3-1.38-6.48-1.45-5.62-.2-11.25-.12-16.88-.05-6.56.08-11.09,3.17-13.63,9.25-6.36,15.25-9.85,31.14-10.12,47.63-.27,16.59-.08,33.19-.11,49.78-.01,6.71-2.61,9.33-9.24,9.36-4.63.02-9.25.07-13.88-.02-4.7-.1-7.76-3.03-7.84-7.29-.09-4.45,3.01-7.5,7.87-7.64,2.49-.07,4.99-.01,8.1-.01,0-1.43-.01-2.74,0-4.04.19-16.09.08-32.19.66-48.26.51-14.31,4.1-28.08,9.24-41.42.83-2.15.89-3.83-.29-5.91-5.54-9.81-8.48-20.45-9.47-31.64-1.15-12.95,7.77-23.97,20.29-25.11,12.77-1.16,23.45,8.1,24.6,21.29.16,1.81.53,3.61.82,5.55,3.17-5.77,5.86-11.53,9.31-16.79,5.11-7.79,12.75-11.24,21.96-9.83,9.49,1.45,15.83,7.11,18.4,16.45,1.78,6.46.33,12.41-2.91,18.31-2.42,4.41-3.88,9.36-5.56,14.14-.91,2.57.1,4.3,2.74,5.58,5.16,2.51,10.15,5.38,15.15,8.2,11.82,6.67,16.55,19.28,12.06,32.03-.74,2.11-1.65,4.17-2.33,6.31-3.41,10.73-10.27,17.78-21.92,20.16,0,1.52,0,2.99,0,4.46,0,25.83-.02,51.66,0,77.49.01,11.32-1.5,22.36-5.34,33.06-.61,1.71-.74,3.66-.75,5.5-.05,24.58-.11,49.16,0,73.74.05,11.05-3.37,20.51-11.43,28.25-.92.89-1.47,2.54-1.54,3.88-.2,4.11-.03,8.23-.08,12.35-.13,11.04-6.01,18.94-16.53,22.32-.56.18-1.06.52-1.6.79h-8.25c-3.78-1.7-7.57-3.4-11.11-5-3.57,1.67-7.11,3.33-10.65,5h-8.25c-.55-.25-1.09-.56-1.66-.73-10.38-3.05-16.7-11.22-16.94-22.05-.09-4.24.07-8.48-.08-12.72-.04-1.24-.41-2.84-1.24-3.63-8.51-8.11-12.03-18.05-11.63-29.65.22-6.43.04-12.87.04-19.79h-46.02c0,7.18-.02,14.5,0,21.83.02,8.08-1.31,16.23-7.02,21.91-5.88,5.84-6.58,12.25-6.05,19.55.1,1.36.04,2.75-.07,4.11-.73,9.51-5.7,15.95-14.39,19.67-1.23.53-2.49,1-3.73,1.5h-8.25c-3.68-1.67-7.37-3.34-11.02-4.99-3.42,1.59-7.08,3.29-10.73,4.99h-8.25Zm179.82-44.87c2.1-.18,3.34-.17,4.53-.4,10.11-1.88,16.84-9.63,16.96-20.23.2-16.93.07-33.87.06-50.8,0-.68-.18-1.37-.3-2.31-4.1,3.74-7.77,7.42-11.81,10.65-2.1,1.68-2.84,3.39-2.79,5.98.14,8.22.03,16.44.06,24.65.04,11.06.9,22.27-6.7,32.45Zm-140.25-50.23c0,8.4-.16,16.37.04,24.32.22,8.91-1.03,17.38-5.92,25.05-.07.12.12.4.18.61,9.95.14,19.11-6.89,20-16.55.85-9.27.48-18.67.49-28.01,0-.75-1.09-1.95-1.9-2.19-4.06-1.17-8.18-2.08-12.9-3.24ZM234.15,39.84c5,1.69,9.51,3.22,13.22,4.47,2.9-6.08,5.66-12.02,8.56-17.89,1.92-3.89,1.04-8.06-2.36-10.2-3.39-2.12-7.52-1.47-9.95,1.96-4.65,6.57-7.79,13.83-9.47,21.66Zm-24.68.45c-1.26-6.23-2.59-12.4-3.75-18.59-.75-4.02-3.9-6.84-7.76-6.65-3.71.18-7.07,3.15-7.02,6.96.11,8.28,2.09,16.18,5.6,23.53,4.61-1.87,8.94-3.63,12.93-5.25ZM15.21,191.69c4.36,0,8.25.34,12.06-.08,5.17-.57,8.59-5.31,8.29-10.71-.29-5.22-4.47-9.29-9.73-9.48-5.35-.19-10.06,3.41-10.55,8.54-.36,3.79-.07,7.65-.07,11.74Zm188.93,161.53h-14.73c.2,3.3.1,6.54.67,9.65.6,3.28,3.96,5.48,7.18,5.32,3.43-.18,6.53-2.83,6.83-6.27.25-2.93.05-5.9.05-8.7Zm15.26,0c.21,3.35.12,6.59.7,9.7.61,3.27,4.01,5.45,7.23,5.26,3.28-.2,6.4-2.71,6.72-5.95.3-3.04.07-6.14.07-9.01h-14.72Zm-176.42,0c0,3.12-.37,6.36.1,9.48.53,3.5,3.28,5.29,6.69,5.42,3.46.13,6.35-1.67,7.01-5.03.64-3.26.14-6.74.14-9.88h-13.93Zm44.17,0h-14.19c0,3.16-.3,6.28.08,9.3.44,3.43,3.92,5.85,7.3,5.65,3.47-.2,6.49-2.87,6.76-6.34.22-2.83.05-5.69.05-8.61Z"/>
  <path class="cls-1" d="m126.05,164.13c-.06-4.13,3.08-7.47,7.16-7.6,4.16-.14,7.73,3.35,7.69,7.52-.03,4.04-3.38,7.37-7.42,7.4-4.09.02-7.37-3.2-7.43-7.31Z"/>
  <path class="cls-1" d="m230.31,87.58c-4.17-.05-7.47-3.54-7.33-7.74.14-4.02,3.5-7.23,7.52-7.17,3.97.06,7.35,3.42,7.41,7.37.06,4.08-3.49,7.6-7.6,7.55Z"/>
</svg>