<svg width="123" height="174" viewBox="0 0 123 174" fill="none" xmlns="http://www.w3.org/2000/svg">
<g filter="url(#filter0_d_263_161)">
<path d="M26.9212 94.6695C24.7931 92.398 23.635 89.6637 23.1322 86.6384C22.9468 85.5255 22.8935 84.3897 22.7792 83.2641C22.7792 83.0061 22.7792 82.7481 22.7792 82.4901C22.9875 78.0433 23.9119 73.7634 25.7378 69.5544C28.483 72.8123 30.8727 76.1942 33.2243 79.6065C34.2985 81.6882 35.5302 83.6865 36.4495 85.8543C37.7421 88.9074 38.3744 92.0869 38.5877 95.3752C38.669 96.6046 38.0341 97.242 37.0158 97.6619C35.1492 98.4308 33.303 98.1425 31.4644 97.543C29.7045 96.9688 28.2849 95.8634 26.9186 94.672C26.5834 97.5202 26.3244 100.373 26.4209 103.247C29.4201 105.028 32.6808 105.764 36.1244 105.349C37.3535 105.2 37.45 105.559 37.3535 106.555C37.0386 109.781 36.904 113.008 37.031 116.253C37.2266 121.338 37.8868 126.318 40.4441 130.821C41.5158 132.708 42.9125 134.408 42.6408 136.762C42.6357 136.798 42.6713 136.841 42.6865 136.879C42.651 138.503 43.0598 140.048 43.5931 141.556C45.8406 147.91 51.8999 151.894 59.4372 152L64.0185 151.949C65.885 151.904 67.7109 151.56 69.4632 150.955C75.3803 148.912 79.0474 144.917 80.0276 138.652C80.1013 138.417 80.2409 138.179 80.2359 137.946C80.1876 135.333 80.9901 133.102 82.4249 130.836C85.2184 126.425 85.612 121.295 85.8914 116.205C86.0691 112.968 85.8964 109.74 85.5739 106.523C85.4673 105.47 85.6628 105.243 86.8259 105.341C92.3163 105.804 96.9992 103.963 100.859 100.047C101.53 99.6956 101.784 98.9873 102.233 98.4485C104.222 96.0557 105.644 93.3643 106.484 90.3719C107.637 86.2767 107.487 82.1613 107 77.9623C106.533 73.9177 105.39 70.1235 103.909 66.3773C103.452 65.2239 102.289 64.1236 102.553 62.9904C102.81 61.8825 103.96 60.9795 104.712 59.9828C110.019 52.9509 114.674 45.5623 117.214 37.038C119.022 30.9698 119.761 24.8181 117.978 18.6285C115.487 9.98781 109.445 4.63797 101.327 1.32942C99.8816 0.740054 98.4036 0.203806 96.8341 0.0570962C91.75 -0.423504 88.2023 2.14391 86.9072 7.23068C86.1021 10.3951 85.871 13.6378 85.9091 16.8781C85.998 24.5146 84.5149 31.8399 81.9069 38.9882C81.4828 40.1492 81.1806 40.3491 80.0352 39.7066C75.0679 36.9242 69.7679 35.2142 64.0058 35.194C61.8904 34.9765 59.7775 34.9638 57.6697 35.2648C57.2481 35.2648 56.8215 35.2244 56.4075 35.2775C51.5723 35.8719 46.9961 37.2985 42.7983 39.7724C41.7215 40.4072 41.4701 40.1113 41.0942 39.097C38.4176 31.8804 36.965 24.469 37.031 16.7466C37.064 13.0889 36.8609 9.41362 35.6089 5.90777C34.2096 2.00226 31.2587 -0.071907 27.1193 0.0191541C23.6325 0.0950383 20.5597 1.56719 17.6215 3.22906C9.25883 7.95917 4.47692 14.9785 4.03251 24.7195C3.79887 29.8088 4.84515 34.6679 6.51108 39.4258C9.2182 47.1483 13.4973 54.0057 18.6017 60.3218C20.2626 62.3757 20.1788 63.8479 19.1985 66.1016C15.7727 73.9708 14.2185 82.1587 16.5447 90.6527C18.0557 96.1695 21.225 100.53 26.4234 103.247M25.3848 55.4778C24.915 56.1178 24.6839 56.3556 24.0795 55.5487C19.8283 49.8574 15.9505 43.951 13.5303 37.2226C12.2428 33.6409 11.3666 29.9656 11.3463 26.1309C11.2803 17.8722 15.8463 11.5207 24.2496 8.18935C24.7982 7.97182 25.3594 7.78211 25.9232 7.6101C27.9421 6.99544 28.4728 7.2838 28.9503 9.35291C29.6969 12.578 29.6664 15.8688 29.7172 19.1496C29.8442 27.6334 31.7564 35.7404 34.9715 43.559C35.3905 44.5758 35.1924 45.0767 34.4052 45.7571C31.0428 48.6634 28.0157 51.8961 25.3848 55.4804V55.4778ZM66.9592 132.311C65.7115 132.341 65.1342 131.72 65.2273 130.449C65.3949 128.122 65.9104 125.868 66.9389 123.779C68.3026 121.009 70.7381 119.676 73.6966 119.19C74.9384 118.985 76.1904 118.854 77.4602 118.932C78.0722 118.97 78.3007 119.193 78.2271 119.772C77.7903 123.232 77.0081 126.574 74.6108 129.28C72.5868 131.562 69.867 132.194 66.9592 132.313V132.311ZM77.4271 111.65C73.468 111.518 69.6892 112.222 66.2456 114.293C64.5619 115.307 63.1296 116.605 61.9488 118.166C61.6085 118.616 61.3977 118.702 61.0168 118.211C57.1999 113.289 51.9405 111.569 45.9473 111.66C44.6343 111.68 44.3397 111.339 44.4185 110.069C44.614 106.917 44.7969 103.765 45.2514 100.642C46.0158 95.3727 49.9318 91.4723 55.5314 90.3315C57.4843 89.9343 59.455 89.7143 61.4561 89.909C63.8839 89.6763 66.2812 89.9445 68.6023 90.6325C72.7951 91.8744 77.351 94.7808 77.9554 102.475C78.1661 105.162 78.3134 107.851 78.5395 110.534C78.6156 111.432 78.3236 111.68 77.4271 111.652V111.65ZM55.9301 132.308C50.7444 132.161 47.6106 129.88 45.8812 124.998C45.3048 123.366 44.9695 121.684 44.7029 119.979C44.581 119.205 44.8324 118.978 45.6197 118.922C52.0751 118.479 56.4177 121.902 57.4183 128.279C57.5427 129.065 57.7484 129.847 57.6544 130.474C57.6561 131.731 57.0814 132.342 55.9301 132.308ZM50.5616 139.924C50.5616 139.924 50.5692 139.924 50.5717 139.924C50.5692 139.924 50.5641 139.924 50.5616 139.924ZM64.0058 144.675C61.4358 144.981 58.8582 144.859 56.3441 144.166C53.9264 143.498 51.9837 142.191 50.8003 139.914C50.6327 139.36 50.2543 138.814 51.425 139.092C54.5359 139.833 57.6875 139.798 60.8288 139.229C61.6516 139.079 62.4186 139.325 63.2058 139.418C66.238 139.78 69.2474 139.704 72.2922 138.92C72.3862 139.755 71.7412 140.248 71.5888 140.903C69.6968 143.428 66.9567 144.321 64.0058 144.672V144.675ZM38.1179 73.8772C35.8171 70.2348 33.1049 66.8959 30.3775 63.5747C29.6486 62.6868 29.674 62.1228 30.3241 61.2197C34.2325 55.7966 38.7884 51.0234 44.4007 47.3456C55.4628 40.0911 69.4073 40.5514 80.152 48.4484C85.0965 52.0833 89.2461 56.482 92.7938 61.4702C93.3474 62.2467 93.2458 62.7425 92.6795 63.4128C91.6231 64.6674 90.6479 65.9929 89.6371 67.288C84.7206 73.3916 80.2968 79.7709 78.1357 87.4377C78.029 87.8172 78.0798 88.8289 77.2037 87.9436C74.8114 85.533 71.7793 84.3063 68.5718 83.5474C62.51 82.1157 56.5167 82.4142 50.6632 84.6553C48.5833 85.4521 46.7828 86.6738 45.0813 88.3711C43.6312 83.0314 41.3076 78.2406 38.1154 73.8747M94.8178 72.4228C95.5872 71.4919 96.3593 70.5636 97.1948 69.5569C99.0207 73.7558 99.9476 78.0382 100.161 82.4876C100.161 82.7481 100.161 83.0061 100.161 83.2666C100.069 85.5583 99.686 87.7969 98.9877 89.9824C97.789 92.5852 96.245 94.925 93.7232 96.4452C91.5773 97.7378 89.2918 98.4991 86.7421 97.9275C84.7714 97.4848 84.3296 96.7209 84.421 94.7252C84.7689 87.2025 88.5604 81.1646 92.7557 75.2912C93.4413 74.3325 94.1321 73.3789 94.8203 72.4228M98.8404 55.5639C98.335 56.2417 98.1115 56.2392 97.6112 55.5537C94.8609 51.7924 91.6713 48.4257 88.1338 45.3928C87.6284 44.9578 87.5497 44.6138 87.8087 43.9991C90.3406 37.9486 92.0395 31.673 92.8369 25.1596C93.1849 22.3114 93.2229 19.4506 93.2687 16.5872C93.3067 14.1918 93.4083 11.7888 93.962 9.43891C94.4724 7.27115 95.0336 6.90691 97.1668 7.64804C103.559 9.87145 108.635 13.5341 110.794 20.2979C111.401 22.2026 111.574 24.168 111.604 26.1537C111.477 32.0878 109.598 37.5439 107 42.7951C104.75 47.3456 101.87 51.499 98.8429 55.5613L98.8404 55.5639Z" fill="url(#paint0_linear_263_161)"/>
<path d="M101.821 111.338C101.172 111.728 100.492 112.062 99.8331 112.431C98.964 112.918 97.5898 112.885 97.2235 113.711C96.8647 114.518 97.2816 115.688 97.3902 116.695C97.8399 120.839 97.711 124.983 97.4003 129.127C97.2563 129.371 97.1729 129.623 97.3093 129.901C96.991 131.517 96.7334 133.148 96.3443 134.746C93.9823 144.438 88.6114 151.617 79.2719 155.468C74.8711 157.282 70.238 158.006 65.5467 158.457L59.2361 158.516C55.7979 158.325 52.3773 157.973 49.0199 157.155C39.5591 154.846 32.4451 149.616 28.5219 140.409C27.0869 137.04 26.3316 133.49 25.7127 129.901C25.8465 129.623 25.7657 129.374 25.6217 129.129C25.5434 127.906 25.4398 126.682 25.3943 125.459C25.2605 121.858 25.3741 118.27 25.8465 114.692C25.9046 114.248 26.2457 113.596 25.5434 113.372C23.2571 112.638 21.2109 111.435 19.1747 110.01C18.0177 116.458 17.6615 122.771 18.3486 129.129C18.3688 129.381 18.3865 129.631 18.4067 129.883C18.5608 131.83 18.8993 133.749 19.3389 135.646C22.8757 150.847 31.9929 160.598 47.1404 164.278C56.3966 166.526 65.7564 166.551 75.0303 164.482C88.6165 161.452 98.0521 153.523 102.435 139.945C103.494 136.665 104.335 133.339 104.613 129.886C104.633 129.634 104.653 129.379 104.673 129.127C105.368 122.753 104.886 116.44 103.875 110C103.082 110.522 102.468 110.956 101.826 111.341L101.821 111.338Z" fill="url(#paint1_linear_263_161)"/>
</g>
<defs>
<filter id="filter0_d_263_161" x="0" y="0" width="123" height="174" filterUnits="userSpaceOnUse" color-interpolation-filters="sRGB">
<feFlood flood-opacity="0" result="BackgroundImageFix"/>
<feColorMatrix in="SourceAlpha" type="matrix" values="0 0 0 0 0 0 0 0 0 0 0 0 0 0 0 0 0 0 127 0" result="hardAlpha"/>
<feOffset dy="4"/>
<feGaussianBlur stdDeviation="2"/>
<feComposite in2="hardAlpha" operator="out"/>
<feColorMatrix type="matrix" values="0 0 0 0 0 0 0 0 0 0 0 0 0 0 0 0 0 0 0.25 0"/>
<feBlend mode="normal" in2="BackgroundImageFix" result="effect1_dropShadow_263_161"/>
<feBlend mode="normal" in="SourceGraphic" in2="effect1_dropShadow_263_161" result="shape"/>
</filter>
<linearGradient id="paint0_linear_263_161" x1="4" y1="76" x2="119" y2="76" gradientUnits="userSpaceOnUse">
<stop stop-color="#F7CB10"/>
<stop offset="1" stop-color="#FF9D00"/>
</linearGradient>
<linearGradient id="paint1_linear_263_161" x1="18" y1="138" x2="105" y2="138" gradientUnits="userSpaceOnUse">
<stop stop-color="#F7CB10"/>
<stop offset="1" stop-color="#FF9D00"/>
</linearGradient>
</defs>
</svg>
